<svg width="25" height="24" viewBox="0 0 25 24" fill="none" xmlns="http://www.w3.org/2000/svg">
<path d="M17.333 3.5C17.333 3.22386 17.1091 3 16.833 3H14.333C11.7123 2.86946 9.47828 4.88009 9.33301 7.5V10.2H6.83301C6.55687 10.2 6.33301 10.4239 6.33301 10.7V13.3C6.33301 13.5761 6.55687 13.8 6.83301 13.8H9.33301V20.5C9.33301 20.7761 9.55687 21 9.83301 21H12.833C13.1092 21 13.333 20.7761 13.333 20.5V13.8H15.953C16.1818 13.8033 16.3836 13.6509 16.443 13.43L17.163 10.83C17.2033 10.6803 17.1719 10.5203 17.0779 10.397C16.9839 10.2736 16.8381 10.2009 16.683 10.2H13.333V7.5C13.3845 6.9871 13.8175 6.59742 14.333 6.6H16.833C17.1091 6.6 17.333 6.37614 17.333 6.1V3.5Z" fill="#1877F2"/>
</svg>
