<svg width="25" height="24" viewBox="0 0 25 24" fill="none" xmlns="http://www.w3.org/2000/svg">
<path d="M8.7473 20C11.7347 20.0999 14.6356 18.9876 16.7902 16.9158C18.9448 14.844 20.1701 11.989 20.1873 8.99999C20.865 8.1614 21.3681 7.19581 21.6673 6.15999C21.7129 5.99281 21.6562 5.81443 21.5223 5.70435C21.3885 5.59427 21.2025 5.57298 21.0473 5.64999C20.3203 5.99991 19.4512 5.847 18.8873 5.26999C18.1781 4.49332 17.1845 4.03695 16.1333 4.00492C15.082 3.97289 14.0625 4.36793 13.3073 5.09999C12.2663 6.10818 11.8298 7.58826 12.1573 8.99999C8.8073 9.19999 6.5073 7.60999 4.6673 5.42999C4.55435 5.30207 4.37645 5.25306 4.21393 5.30506C4.0514 5.35707 3.93501 5.50026 3.9173 5.66999C3.19942 9.65215 5.03417 13.6607 8.5173 15.72C7.37694 17.0278 5.77551 17.8446 4.0473 18C3.85748 18.0315 3.70868 18.1801 3.67704 18.3699C3.64541 18.5597 3.73795 18.7486 3.9073 18.84C5.41082 19.5914 7.06653 19.9882 8.7473 20Z" fill="#00AAEC"/>
</svg>
