<svg width="218" height="160" viewBox="0 0 218 160" fill="none" xmlns="http://www.w3.org/2000/svg">
<g opacity="0.2">
<path fill-rule="evenodd" clip-rule="evenodd" d="M0.499756 88.347C0.499756 106.772 7.24928 123.562 18.3561 136.252C31.0981 150.814 49.5753 159.969 70.1713 160C79.1726 160.013 87.7794 158.272 95.6852 155.095C99.7729 153.451 104.348 153.64 108.307 155.587C112.951 157.868 118.151 159.147 123.643 159.147C125.911 159.147 128.132 158.928 130.281 158.51C136.414 157.323 141.996 154.515 146.58 150.537C149.46 148.036 153.15 146.779 156.92 146.783H156.984C169.444 146.783 181.017 142.902 190.626 136.252C199.216 130.314 206.231 122.165 210.905 112.596C214.98 104.258 217.274 94.8391 217.274 84.8701C217.274 50.6788 190.279 22.9571 156.984 22.9571C153.59 22.9571 150.265 23.2515 147.02 23.8008C138.43 9.52003 123.047 0 105.499 0C98.0902 0 91.0663 1.69675 84.7791 4.73832C78.8 7.62148 73.4839 11.7183 69.1351 16.7111C54.3688 16.9529 40.715 21.9066 29.5398 30.174C11.9488 43.1801 0.499756 64.3922 0.499756 88.347Z" fill="url(#paint0_linear_263_5586)"/>
</g>
<path opacity="0.05" d="M132.825 91.6405C131.81 92.8284 130.713 92.8085 130.06 92.6411L130.084 92.0258C130.084 92.0258 132.785 90.8113 132.716 91.0665C132.69 91.1621 132.741 91.392 132.825 91.6405Z" fill="#FF4842"/>
<path opacity="0.05" d="M140.225 92.9856C138.501 93.9662 137.49 92.8169 137.255 92.4913C137.399 92.1179 137.617 91.512 137.572 91.3393C137.507 91.0828 140.204 92.2973 140.204 92.2973L140.225 92.9856Z" fill="#FF4842"/>
<path opacity="0.05" d="M138.378 83.2019C138.378 83.2019 140.019 82.2717 140.377 82.6903C140.735 83.1089 138.378 83.2019 138.378 83.2019Z" fill="#FF4842"/>
<path opacity="0.05" d="M139.369 83.7129C139.369 83.7129 139.099 83.8458 139.695 84.0158C140.29 84.1859 139.369 83.7129 139.369 83.7129Z" fill="#FF4842"/>
<path opacity="0.05" d="M129.45 81.1552C129.394 81.1712 130.815 82.0986 132.097 81.3306C132.092 81.3306 129.77 81.0595 129.45 81.1552Z" fill="#FF4842"/>
<path opacity="0.05" d="M132.027 82.9297C132.027 82.9297 131.638 83.6818 130.842 83.7934C130.045 83.905 132.027 82.9297 132.027 82.9297Z" fill="#FF4842"/>
<path opacity="0.05" d="M137.241 84.5605C137.241 84.5605 139.11 87.4838 138.752 88.1735C138.395 88.8631 137.241 84.5605 137.241 84.5605Z" fill="#FF4842"/>
<path opacity="0.05" d="M133.554 96.185C133.554 96.3484 133.554 96.5012 133.538 96.6274C133.489 97.2187 132.011 96.9955 132.011 96.9955C130.661 97.1802 130.175 96.5424 130.014 95.9325C129.964 95.7344 129.939 95.5308 129.94 95.3266C129.939 95.2048 129.947 95.0831 129.964 94.9625V94.8416C130.255 94.7552 130.571 94.8186 130.804 95.0103C131.405 95.49 132.201 95.122 132.201 95.122C132.201 95.122 132.786 95.1698 133.011 95.3611C133.138 95.4688 133.348 95.2097 133.507 94.9625C133.516 95.122 133.531 95.4103 133.541 95.7186C133.552 95.8767 133.554 96.0362 133.554 96.185Z" fill="#FF4842"/>
<path opacity="0.05" d="M131.183 96.1505C131.183 96.1505 130.778 96.5412 130.014 95.9379C129.964 95.7398 129.939 95.5363 129.94 95.332C130.33 95.6244 131.054 96.1505 131.183 96.1505Z" fill="#FF4842"/>
<path opacity="0.05" d="M133.554 96.1845C133.487 96.2351 133.403 96.2563 133.319 96.2433C133.236 96.2302 133.162 96.1839 133.115 96.1154C133.273 95.9975 133.418 95.8639 133.547 95.7168C133.551 95.8762 133.554 96.0357 133.554 96.1845Z" fill="#FF4842"/>
<path opacity="0.05" d="M136.723 96.4585C136.723 96.6233 136.723 96.7761 136.738 96.901C136.786 97.4936 138.265 97.269 138.265 97.269C139.615 97.4551 140.101 96.8173 140.262 96.206C140.341 95.8888 140.358 95.5595 140.312 95.236V95.1151C140.02 95.0302 139.705 95.0935 139.471 95.2839C138.87 95.7636 138.075 95.3955 138.075 95.3955C138.075 95.3955 137.49 95.4446 137.264 95.636C137.137 95.7436 136.928 95.4845 136.77 95.2374C136.761 95.3968 136.745 95.6852 136.735 95.9934C136.724 96.1489 136.722 96.3083 136.723 96.4585Z" fill="#FF4842"/>
<path opacity="0.05" d="M139.094 96.4217C139.094 96.4217 139.499 96.8123 140.262 96.2091C140.313 96.0115 140.338 95.8083 140.338 95.6045C139.946 95.8955 139.222 96.4217 139.094 96.4217Z" fill="#FF4842"/>
<path opacity="0.05" d="M136.723 96.4589C136.789 96.5094 136.874 96.5307 136.957 96.5176C137.04 96.5045 137.113 96.4583 137.16 96.3898C137.003 96.2721 136.858 96.1385 136.728 95.9912C136.724 96.1493 136.722 96.3088 136.723 96.4589Z" fill="#FF4842"/>
<g opacity="0.05">
<path d="M144.842 47.2311C144.87 47.17 144.897 47.1088 144.923 47.0491C144.949 46.9893 144.958 46.956 144.973 46.9082C144.923 47.0134 144.879 47.1212 144.842 47.2311Z" fill="#FF4842"/>
</g>
<path fill-rule="evenodd" clip-rule="evenodd" d="M71.6704 124.205C71.3432 123.817 71.1932 123.314 71.2559 122.814L77.2157 74.8228L77.7099 70.8365C77.8244 69.9192 78.6125 69.2278 79.5515 69.2207L97.0082 69.1064C97.5104 69.1034 97.9901 68.9015 98.3392 68.5462C98.6883 68.1909 98.8772 67.7123 98.8634 67.2183L98.8567 67.0362C98.8395 66.538 99.0285 66.0542 99.3806 65.6958C99.7326 65.3373 100.217 65.1348 100.724 65.1348H119.068C120.097 65.1348 120.933 65.9551 120.935 66.9685C120.935 67.0511 120.93 67.1336 120.919 67.2156C120.849 67.7328 121.005 68.2551 121.349 68.6521C121.693 69.0491 122.193 69.2833 122.723 69.2965L140.34 69.7389C140.882 69.7521 141.392 69.9966 141.736 70.4088C142.08 70.8211 142.225 71.3603 142.133 71.8862L133.326 122.512L133.16 123.469C133.119 123.713 133.027 123.947 132.89 124.155L71.6704 124.205Z" fill="#194EB2"/>
<rect width="10.2629" height="34.6368" transform="matrix(0.826958 0.562264 -0.574576 0.818451 124.835 54.9668)" fill="white"/>
<rect width="7.24511" height="7.20483" transform="matrix(0.825354 0.564615 -0.576929 0.816794 125.447 56.3105)" fill="#FFC107"/>
<rect opacity="0.5" width="7.25522" height="7.21427" transform="matrix(0.826958 0.562264 -0.574576 0.818451 120.762 63.4023)" fill="#FFC107"/>
<rect opacity="0.3" width="7.25522" height="7.21427" transform="matrix(0.826958 0.562264 -0.574576 0.818451 115.757 70.5303)" fill="#FFC107"/>
<rect width="10.3027" height="34.3699" transform="matrix(0.961046 0.276389 -0.28466 0.958629 112.844 53.1914)" fill="white"/>
<rect width="7.28338" height="7.18584" transform="matrix(0.961046 0.276389 -0.284659 0.958629 114.145 54.1426)" fill="#FF4842"/>
<rect opacity="0.5" width="7.28338" height="7.18584" transform="matrix(0.961046 0.276389 -0.28466 0.958629 111.675 62.459)" fill="#FF4842"/>
<rect opacity="0.3" width="7.28338" height="7.18584" transform="matrix(0.961046 0.27639 -0.284659 0.958629 109.205 70.7744)" fill="#FF4842"/>
<rect width="10.3145" height="34.3296" transform="matrix(0.99688 0.0789339 -0.081484 0.996675 105.831 53.7109)" fill="white"/>
<rect width="7.29168" height="7.17741" transform="matrix(0.99688 0.0789339 -0.081484 0.996675 107.294 54.3838)" fill="#1890FF"/>
<rect opacity="0.5" width="7.29167" height="7.17741" transform="matrix(0.99688 0.0789339 -0.0814839 0.996675 106.587 63.0186)" fill="#1890FF"/>
<rect opacity="0.3" width="7.29167" height="7.17741" transform="matrix(0.99688 0.0789339 -0.0814839 0.996675 105.882 71.6553)" fill="#1890FF"/>
<rect width="10.3152" height="34.3272" transform="matrix(0.998995 -0.044816 0.0462703 0.998929 101.205 55.0869)" fill="white"/>
<rect width="7.29218" height="7.17691" transform="matrix(0.998995 -0.044816 0.0462703 0.998929 102.741 55.5713)" fill="#2D76FF"/>
<rect opacity="0.5" width="7.30124" height="7.18592" transform="matrix(0.998792 -0.0491469 0.050741 0.998712 103.428 63.9521)" fill="#2D76FF"/>
<rect opacity="0.3" width="7.29218" height="7.17691" transform="matrix(0.998995 -0.044816 0.0462703 0.998929 103.542 72.8818)" fill="#2D76FF"/>
<path d="M105.581 100.322L96.4156 103.812L83.0203 108.908C82.514 107.977 81.7687 106.72 80.8465 105.22C77.6735 100.046 72.4239 91.9977 67.7496 84.9247C62.4838 76.9521 57.9512 70.2245 57.9512 70.2245L61.2322 69.2944L88.0336 61.6367L105.581 100.322Z" fill="#F4F6F8"/>
<path opacity="0.1" d="M105.581 100.322L96.4155 103.812C91.2956 104.861 86.0709 105.334 80.8423 105.22C77.6694 100.046 72.4198 91.9977 67.7454 84.9247L61.2334 69.2891L88.0335 61.6367L105.581 100.322Z" fill="black"/>
<path d="M112.399 98.1514C112.399 98.1514 98.1614 106.44 76.9038 104.565L59.9575 63.9051L68.079 62.5312L96.155 57.7861L112.087 97.3608L112.399 98.1514Z" fill="#2D76FF"/>
<path opacity="0.1" d="M112.082 97.3666C108.729 97.5287 104.85 97.5128 100.948 97.0544C96.7249 96.5654 92.4772 95.5582 88.8357 93.7112C85.791 92.1685 83.1878 90.4903 80.9181 88.4772C75.0137 83.2511 71.3601 75.7755 68.0791 62.537L96.1551 57.792L112.082 97.3666Z" fill="#FF4842"/>
<path d="M122.527 95.0929C122.527 95.0929 112.032 97.1153 101.349 95.8702C97.1258 95.3813 92.878 94.3741 89.2366 92.5271C86.1919 90.9844 83.59 89.3061 81.319 87.2931C74.0117 80.8233 70.1529 70.9081 66.1738 50.8849C66.1738 50.8849 83.6211 55.0293 100.874 45.9512C100.869 45.9578 106.684 81.6724 122.527 95.0929Z" fill="white"/>
<path opacity="0.3" d="M75.1985 58.2355C75.1985 58.2355 89.3864 57.4462 93.3478 54.4365L93.9487 56.3367C93.9487 56.3367 84.5743 60.4067 75.1985 60.4558V58.2355Z" fill="#2D76FF"/>
<path opacity="0.3" d="M75.1985 67.6162C75.1985 67.6162 88.9354 66.8761 99.3144 61.9424L99.6654 62.7317C99.6654 62.7317 91.4292 67.4634 75.1985 68.7018L75.1985 67.6162Z" fill="#2D76FF"/>
<path opacity="0.3" d="M76.3044 71.2725C76.3044 71.2725 90.0414 70.5323 100.419 65.5986L100.77 66.3879C100.77 66.3879 92.5338 71.1183 76.3044 72.3581L76.3044 71.2725Z" fill="#2D76FF"/>
<path opacity="0.3" d="M77.4087 74.9326C77.4087 74.9326 91.1456 74.1925 101.525 69.2588L101.874 70.0481C101.874 70.0481 93.6381 74.7798 77.4087 76.0182L77.4087 74.9326Z" fill="#2D76FF"/>
<path opacity="0.3" d="M78.5149 78.5938C78.5149 78.5938 92.2518 77.8536 102.629 72.9199L102.98 73.7092C102.98 73.7092 94.7443 78.4409 78.5149 79.6794L78.5149 78.5938Z" fill="#2D76FF"/>
<path opacity="0.3" d="M79.6191 82.2559C79.6191 82.2559 93.356 81.5157 103.735 76.582L104.085 77.3713C104.085 77.3713 95.8485 82.1017 79.6191 83.3415V82.2559Z" fill="#2D76FF"/>
<path d="M176.208 127.708C176.208 127.708 170.5 127.37 171.172 131.307C171.172 131.307 171.037 132.002 171.68 132.318C171.68 132.318 171.689 132.026 172.264 132.125C172.469 132.159 172.678 132.169 172.885 132.155C173.165 132.136 173.431 132.028 173.643 131.846C173.643 131.846 175.248 131.194 175.872 128.613C175.872 128.613 176.334 128.05 176.315 127.905L175.352 128.304C175.352 128.304 175.682 128.988 175.422 129.555C175.422 129.555 175.391 128.329 175.206 128.36C175.169 128.36 174.705 128.596 174.705 128.596C174.705 128.596 175.271 129.792 174.84 130.653C174.84 130.653 175.003 129.185 174.525 128.682L173.849 129.072C173.849 129.072 174.511 130.302 174.063 131.307C174.063 131.307 174.178 129.767 173.706 129.166L173.092 129.638C173.092 129.638 173.714 130.851 173.335 131.684C173.335 131.684 173.285 129.89 172.958 129.755C172.958 129.755 172.418 130.221 172.34 130.419C172.34 130.419 172.765 131.299 172.501 131.764C172.501 131.764 172.339 130.568 172.206 130.568C172.206 130.568 171.666 131.365 171.615 131.897C171.615 131.897 171.638 131.089 172.077 130.487C171.767 130.545 171.482 130.69 171.256 130.905C171.256 130.905 171.339 130.345 172.209 130.297C172.209 130.297 172.652 129.696 172.769 129.659C172.769 129.659 171.905 129.589 171.381 129.817C171.381 129.817 171.843 129.286 172.929 129.529L173.535 129.043C173.535 129.043 172.397 128.888 171.915 129.059C171.915 129.059 172.47 128.591 173.698 128.926L174.358 128.538C174.358 128.538 173.389 128.332 172.811 128.405C172.811 128.405 173.42 128.081 174.553 128.431L175.024 128.223C175.024 128.223 174.314 128.09 174.106 128.063C173.898 128.037 173.886 127.986 173.886 127.986C174.336 127.911 174.799 127.962 175.221 128.132C175.221 128.132 176.224 127.771 176.208 127.708Z" fill="#2D76FF"/>
<ellipse opacity="0.1" cx="172.276" cy="132.661" rx="4.03979" ry="0.672356" fill="#2D76FF"/>
<path d="M178.867 114.712C178.867 114.712 175.649 114.521 176.031 116.741C175.991 116.972 176.106 117.202 176.316 117.311C176.316 117.311 176.323 117.146 176.647 117.202C176.763 117.221 176.88 117.226 176.997 117.218C177.154 117.208 177.304 117.147 177.423 117.045C177.423 117.045 178.328 116.677 178.68 115.222C178.68 115.222 178.941 114.905 178.93 114.824L178.39 115.051C178.39 115.051 178.575 115.438 178.429 115.758C178.429 115.758 178.412 115.066 178.308 115.082C178.286 115.082 178.026 115.214 178.026 115.214C178.026 115.214 178.344 115.879 178.104 116.374C178.104 116.374 178.196 115.547 177.926 115.262L177.544 115.483C177.544 115.483 177.916 116.176 177.664 116.742C177.664 116.742 177.728 115.873 177.462 115.536L177.117 115.802C177.117 115.802 177.467 116.486 177.252 116.955C177.252 116.955 177.224 115.944 177.04 115.868C176.909 115.978 176.791 116.102 176.69 116.239C176.69 116.239 176.931 116.736 176.782 116.998C176.782 116.998 176.69 116.324 176.616 116.321C176.616 116.321 176.313 116.766 176.282 117.072C176.297 116.788 176.387 116.514 176.543 116.275C176.368 116.307 176.207 116.389 176.08 116.511C176.08 116.511 176.127 116.195 176.62 116.168C176.62 116.168 176.87 115.83 176.936 115.808C176.936 115.808 176.448 115.769 176.153 115.897C176.153 115.897 176.413 115.6 177.025 115.735L177.368 115.46C177.368 115.46 176.725 115.374 176.454 115.47C176.454 115.47 176.767 115.204 177.46 115.398L177.832 115.179C177.546 115.117 177.252 115.092 176.959 115.105C176.959 115.105 177.303 114.922 177.94 115.12L178.21 115.003C178.21 115.003 177.805 114.925 177.692 114.913C177.579 114.901 177.568 114.869 177.568 114.869C177.822 114.827 178.083 114.856 178.321 114.951C178.321 114.951 178.877 114.747 178.867 114.712Z" fill="#2D76FF"/>
<ellipse opacity="0.1" cx="176.653" cy="117.504" rx="2.27779" ry="0.3787" fill="#2D76FF"/>
<path d="M159.872 116.639C159.872 116.639 155.986 116.408 156.445 119.088C156.396 119.366 156.536 119.644 156.79 119.776C156.79 119.776 156.79 119.577 157.195 119.643C157.334 119.666 157.476 119.673 157.617 119.663C157.808 119.651 157.989 119.577 158.133 119.453C158.133 119.453 159.225 119.009 159.651 117.253C159.651 117.253 159.965 116.87 159.952 116.77L159.289 117.047C159.289 117.047 159.513 117.512 159.336 117.898C159.336 117.898 159.315 117.064 159.189 117.083C159.163 117.083 158.849 117.245 158.849 117.245C158.849 117.245 159.234 118.055 158.943 118.645C158.943 118.645 159.054 117.646 158.729 117.303L158.267 117.569C158.267 117.569 158.716 118.407 158.411 119.09C158.411 119.09 158.49 118.042 158.17 117.629L157.751 117.95C157.751 117.95 158.175 118.775 157.916 119.343C157.916 119.343 157.883 118.122 157.661 118.03C157.661 118.03 157.295 118.348 157.239 118.478C157.239 118.478 157.528 119.077 157.349 119.393C157.349 119.393 157.238 118.58 157.148 118.576C157.148 118.576 156.784 119.116 156.742 119.484C156.761 119.142 156.869 118.812 157.057 118.524C156.847 118.564 156.653 118.663 156.499 118.81C156.499 118.81 156.556 118.429 157.148 118.395C157.148 118.395 157.449 117.986 157.53 117.962C157.53 117.962 156.941 117.913 156.584 118.069C156.584 118.069 156.898 117.71 157.636 117.873L158.049 117.541C158.049 117.541 157.276 117.437 156.946 117.552C156.946 117.552 157.324 117.234 158.162 117.467L158.611 117.201C158.611 117.201 157.951 117.061 157.557 117.112C157.557 117.112 157.972 116.891 158.742 117.13L159.063 116.988C159.063 116.988 158.58 116.895 158.438 116.881C158.297 116.866 158.29 116.827 158.29 116.827C158.596 116.776 158.911 116.81 159.198 116.926C159.198 116.926 159.884 116.68 159.872 116.639Z" fill="#2D76FF"/>
<ellipse opacity="0.1" cx="157.196" cy="120.01" rx="2.75036" ry="0.457092" fill="#2D76FF"/>
<rect width="22.7133" height="41.1756" rx="5" transform="matrix(0.313683 -0.949528 0.952437 0.304734 126.108 55.5615)" fill="white"/>
<g opacity="0.2">
<ellipse cx="137.615" cy="46.0029" rx="4.23422" ry="4.16701" fill="#2D76FF"/>
</g>
<g opacity="0.2">
<rect width="1.14318" height="18.42" transform="matrix(0.313683 -0.949528 0.952437 0.304734 147.746 45.2539)" fill="#2D76FF"/>
</g>
<g opacity="0.2">
<rect width="1.14318" height="9.38323" transform="matrix(0.313683 -0.949528 0.952437 0.304734 146.832 48.0215)" fill="#2D76FF"/>
</g>
<g opacity="0.2">
<rect width="1.14318" height="15.1763" transform="matrix(0.313683 -0.949528 0.952437 0.304734 145.916 50.79)" fill="#2D76FF"/>
</g>
<g opacity="0.2">
<rect width="1.14318" height="18.42" transform="matrix(0.313682 -0.949528 0.952437 0.304735 145.002 53.5586)" fill="#2D76FF"/>
</g>
<g opacity="0.5">
<rect width="2.21051" height="5.0974" transform="matrix(0.313682 -0.949528 0.952437 0.304735 156.036 62.6279)" fill="#2D76FF"/>
</g>
<rect width="22.4617" height="35.2001" rx="4" transform="matrix(0.546885 -0.837207 0.845079 0.534642 122.51 94.9434)" fill="white"/>
<rect width="6.35443" height="1.50536" transform="matrix(0.542388 -0.840128 0.847895 0.530164 126.918 93.6309)" fill="#DFE3E8"/>
<rect width="13.9557" height="1.38036" transform="matrix(0.542388 -0.840128 0.847896 0.530163 130.997 94.7129)" fill="#DFE3E8"/>
<rect width="13.9557" height="1.38036" transform="matrix(0.542388 -0.840128 0.847896 0.530163 133.498 96.2744)" fill="#DFE3E8"/>
<rect width="13.9557" height="1.38036" transform="matrix(0.542388 -0.840128 0.847896 0.530163 135.997 97.8389)" fill="#DFE3E8"/>
<rect width="13.9372" height="1.37832" transform="matrix(0.546885 -0.837207 0.845079 0.534642 138.584 100.105)" fill="#DFE3E8"/>
<rect width="13.9557" height="1.38036" transform="matrix(0.542388 -0.840128 0.847896 0.530163 140.997 100.965)" fill="#F4F6F8"/>
<rect width="13.9557" height="1.38036" transform="matrix(0.542388 -0.840128 0.847896 0.530163 143.497 102.526)" fill="#F4F6F8"/>
<rect width="3.61375" height="3.63839" transform="matrix(0.542387 -0.840129 0.847895 0.530164 153.994 95.8662)" fill="#DFE3E8"/>
<path d="M122.108 75.005L101.44 75.2242C100.666 75.2322 100.043 75.8513 100.042 76.6128V78.2936C100.042 79.0475 99.4307 79.6635 98.6649 79.6822L83.7507 80.0343C83.1002 80.0504 82.523 79.6267 82.3532 79.0085L81.6525 76.4746C81.4844 75.8633 80.9173 75.4413 80.2739 75.4488L60.3517 75.66C59.9386 75.664 59.5481 75.846 59.2831 76.1579C59.0181 76.4698 58.9053 76.8803 58.9745 77.2811L66.9893 123.703C67.1042 124.369 67.6893 124.857 68.376 124.86L131.314 125.126C131.736 125.127 132.136 124.943 132.406 124.624C132.675 124.305 132.785 123.883 132.706 123.476L123.509 76.1331C123.381 75.4732 122.791 74.9982 122.108 75.005Z" fill="url(#paint1_linear_263_5586)"/>
<ellipse opacity="0.1" cx="54.5095" cy="114.961" rx="2.18867" ry="0.296318" fill="#2D76FF"/>
<ellipse opacity="0.1" cx="46.1262" cy="115.797" rx="2.18867" ry="0.296314" fill="#2D76FF"/>
<ellipse opacity="0.1" cx="49.4815" cy="118.18" rx="1.55543" ry="0.209946" fill="#2D76FF"/>
<ellipse opacity="0.1" cx="40.7808" cy="117.97" rx="1.55543" ry="0.209946" fill="#2D76FF"/>
<path d="M46.0789 115.732C46.0789 115.732 49.1479 105.83 45.5982 101.864C42.9424 98.8966 39.9274 99.2514 38.5772 99.6181C37.8706 99.8039 37.2824 100.285 36.9678 100.935C36.4952 101.937 36.5803 103.563 39.9125 105.462C45.4902 108.64 45.8372 113 45.8372 113L46.0789 115.732Z" fill="#2D76FF"/>
<path d="M39.0593 101.023C39.0593 101.023 48.1056 103.814 46.0804 115.733" stroke="#194EB2" stroke-width="0.5" stroke-linecap="round"/>
<path d="M44.3438 102.021C44.3438 102.021 43.0976 102.847 43.4946 104.089" stroke="#194EB2" stroke-width="0.5" stroke-linecap="round"/>
<path d="M39.9666 102.757C39.9666 102.757 40.7281 101.995 41.6557 102.416" stroke="#194EB2" stroke-width="0.5" stroke-linecap="round"/>
<path d="M43.5432 106.592C43.5432 106.592 44.8813 105.927 45.2269 106.761" stroke="#194EB2" stroke-width="0.5" stroke-linecap="round"/>
<path d="M46.8527 107.983C46.8527 107.983 45.8481 107.905 45.8306 108.382" stroke="#194EB2" stroke-width="0.5" stroke-linecap="round"/>
<path d="M46.2031 115.811C46.2031 115.811 42.6076 108.614 41.6206 108.768C41.1521 108.844 40.936 109.3 40.8375 109.754C40.7163 110.344 40.7847 110.956 41.0332 111.505C41.5436 112.661 42.9141 114.847 46.2031 115.811Z" fill="#2D76FF"/>
<path d="M41.6475 110.137C41.6475 110.137 45.4199 115.521 46.149 115.757" stroke="#194EB2" stroke-width="0.5" stroke-linecap="round"/>
<path d="M41.3005 110.979H42.1809" stroke="#194EB2" stroke-width="0.5" stroke-linecap="round"/>
<path d="M42.355 112.947L43.7362 113.006" stroke="#194EB2" stroke-width="0.5" stroke-linecap="round"/>
<path d="M43.1963 111.371L43.0464 112.079" stroke="#194EB2" stroke-width="0.5" stroke-linecap="round"/>
<path d="M44.664 113.525L44.637 114.169" stroke="#194EB2" stroke-width="0.5" stroke-linecap="round"/>
<path d="M46.0964 115.811C46.0964 115.811 49.6907 108.614 50.6777 108.768C51.1475 108.844 51.3636 109.3 51.4608 109.754C51.582 110.344 51.5135 110.956 51.265 111.505C50.7546 112.661 49.3828 114.847 46.0964 115.811Z" fill="#2D76FF"/>
<path d="M50.6521 110.137C50.6521 110.137 46.8715 115.521 46.1492 115.757" stroke="#194EB2" stroke-width="0.5" stroke-linecap="round"/>
<path d="M50.999 110.979H50.1187" stroke="#194EB2" stroke-width="0.5" stroke-linecap="round"/>
<path d="M49.9445 112.947L48.5632 113.006" stroke="#194EB2" stroke-width="0.5" stroke-linecap="round"/>
<path d="M49.1033 111.371L49.2531 112.079" stroke="#194EB2" stroke-width="0.5" stroke-linecap="round"/>
<path d="M47.6355 113.525L47.6626 114.169" stroke="#194EB2" stroke-width="0.5" stroke-linecap="round"/>
<path d="M39.9232 117.491C39.8254 117.413 39.7543 117.307 39.7194 117.187C39.6849 117.063 39.7451 116.933 39.8625 116.877C39.9975 116.828 40.1325 116.917 40.2405 117.01C40.3485 117.103 40.4714 117.202 40.6064 117.179C40.4607 117.049 40.395 116.853 40.4336 116.664C40.4391 116.625 40.4555 116.589 40.4809 116.559C40.5538 116.481 40.6861 116.515 40.7739 116.576C41.0439 116.767 41.129 117.138 41.1303 117.473C41.1438 117.35 41.1438 117.226 41.1303 117.103C41.1231 116.978 41.1797 116.857 41.2815 116.78C41.3473 116.745 41.4214 116.728 41.4962 116.73C41.6217 116.712 41.7489 116.748 41.8459 116.828C41.9405 116.955 41.9349 117.129 41.8324 117.249C41.729 117.364 41.6066 117.46 41.4706 117.534C41.3673 117.595 41.2792 117.678 41.2127 117.777C41.2045 117.79 41.1982 117.805 41.1938 117.82H40.408C40.232 117.732 40.069 117.622 39.9232 117.491Z" fill="#2D76FF"/>
<path d="M53.6211 114.593C53.5231 114.515 53.4519 114.409 53.4173 114.29C53.3826 114.167 53.4422 114.036 53.559 113.98C53.6941 113.931 53.8291 114.02 53.9371 114.113C54.0451 114.206 54.1666 114.307 54.3057 114.287C54.1599 114.158 54.0938 113.963 54.1315 113.773C54.1375 113.734 54.1543 113.698 54.1801 113.668C54.253 113.591 54.3854 113.624 54.4731 113.684C54.7499 113.877 54.8282 114.247 54.8296 114.582C54.8431 114.459 54.8431 114.335 54.8296 114.211C54.8173 114.087 54.8678 113.965 54.9646 113.885C55.0306 113.85 55.1046 113.833 55.1793 113.835C55.3045 113.818 55.4314 113.853 55.529 113.932C55.6239 114.06 55.6177 114.234 55.5141 114.355C55.4114 114.469 55.2895 114.566 55.1536 114.639C55.0503 114.7 54.9622 114.783 54.8957 114.881C54.8878 114.895 54.8815 114.91 54.8768 114.925H54.1086C53.9314 114.837 53.7673 114.725 53.6211 114.593Z" fill="#2D76FF"/>
<path d="M49.0559 117.492C48.9582 117.413 48.8867 117.307 48.8507 117.187C48.8163 117.064 48.8765 116.933 48.9938 116.878C49.1288 116.828 49.2639 116.917 49.3719 117.01C49.4799 117.104 49.6001 117.204 49.7405 117.186C49.5949 117.056 49.5289 116.86 49.5663 116.67C49.5723 116.632 49.5891 116.595 49.6149 116.565C49.6878 116.488 49.8201 116.522 49.9079 116.583C50.1847 116.774 50.2617 117.145 50.2644 117.48C50.2779 117.357 50.2779 117.233 50.2644 117.11C50.2537 116.985 50.3068 116.862 50.4061 116.783C50.4718 116.748 50.5459 116.73 50.6208 116.733C50.7463 116.715 50.8734 116.751 50.9705 116.831C51.0652 116.958 51.059 117.132 50.9557 117.252C50.8527 117.367 50.7308 117.463 50.5952 117.537C50.4919 117.598 50.4038 117.681 50.3373 117.78C50.3291 117.793 50.3228 117.807 50.3184 117.822H49.5353C49.3612 117.734 49.2 117.622 49.0559 117.492Z" fill="#2D76FF"/>
<ellipse opacity="0.1" cx="38.6461" cy="38.6681" rx="2.92048" ry="2.87412" fill="#2D76FF"/>
<ellipse opacity="0.1" cx="179.079" cy="61.6358" rx="2.92048" ry="2.87412" fill="#2D76FF"/>
<ellipse opacity="0.1" cx="126.58" cy="29.5411" rx="2.92048" ry="2.87412" fill="#2D76FF"/>
<ellipse opacity="0.1" cx="44.487" cy="54.5238" rx="4.89447" ry="4.81678" fill="#2D76FF"/>
<path fill-rule="evenodd" clip-rule="evenodd" d="M93.5451 93.2939C89.9434 93.2939 87.0237 96.1674 87.0237 99.7119C87.0237 103.256 89.9434 106.13 93.5451 106.13C97.1468 106.13 100.067 103.256 100.067 99.7119C100.067 96.1674 97.1468 93.2939 93.5451 93.2939V93.2939Z" fill="#194EB3"/>
<path opacity="0.72" fill-rule="evenodd" clip-rule="evenodd" d="M93.5451 94.04C96.7278 94.04 99.3079 96.5792 99.3079 99.7114C99.3079 102.844 96.7278 105.383 93.5451 105.383C90.3623 105.383 87.7822 102.844 87.7822 99.7114C87.785 96.5803 90.3635 94.0428 93.5451 94.04Z" fill="#2D76FF"/>
<path fill-rule="evenodd" clip-rule="evenodd" d="M90.8485 100.18L90.5331 99.8771C90.4649 99.8158 90.4263 99.7302 90.4263 99.6405C90.4263 99.5508 90.4649 99.4652 90.5331 99.4039L93.3 96.7442C93.3638 96.6787 93.453 96.6416 93.5463 96.6416C93.6397 96.6416 93.7289 96.6787 93.7927 96.7442L96.5596 99.4015C96.6264 99.4635 96.6642 99.5489 96.6642 99.6381C96.6642 99.7274 96.6264 99.8128 96.5596 99.8747L96.2442 100.178C96.1797 100.242 96.0908 100.278 95.9978 100.278C95.9049 100.278 95.816 100.242 95.7515 100.178L94.1155 98.5212V102.452C94.1161 102.539 94.0806 102.622 94.0168 102.684C93.9529 102.746 93.8661 102.781 93.7755 102.781H93.3197C93.1305 102.781 92.9772 102.633 92.9772 102.452V98.526L91.3412 100.182C91.2764 100.246 91.1872 100.282 91.0943 100.282C91.0014 100.281 90.9127 100.245 90.8485 100.18Z" fill="#194EB3"/>
<defs>
<linearGradient id="paint0_linear_263_5586" x1="148.995" y1="188.459" x2="226.632" y2="10.6558" gradientUnits="userSpaceOnUse">
<stop stop-color="#2D76FF"/>
<stop offset="1" stop-color="#2D76FF" stop-opacity="0.01"/>
</linearGradient>
<linearGradient id="paint1_linear_263_5586" x1="81.1706" y1="60.9957" x2="59.9158" y2="124.769" gradientUnits="userSpaceOnUse">
<stop stop-color="#2D76FF"/>
<stop offset="1" stop-color="#194EB3"/>
</linearGradient>
</defs>
</svg>
