<svg width="17" height="16" viewBox="0 0 17 16" fill="none" xmlns="http://www.w3.org/2000/svg">
<path fill-rule="evenodd" clip-rule="evenodd" d="M13.6601 0.599861L16.4001 3.33986C17.166 4.06963 17.1973 5.28152 16.4701 6.04986L7.47006 15.0499C7.14409 15.3731 6.71685 15.5744 6.26006 15.6199L2.09006 15.9999H2.00006C1.73425 16.0014 1.47878 15.897 1.29006 15.7099C1.07909 15.4997 0.972783 15.2064 1.00006 14.9099L1.43006 10.7399C1.47556 10.2831 1.67682 9.85583 2.00006 9.52986L11.0001 0.529861C11.7759 -0.125588 12.9198 -0.0954855 13.6601 0.599861ZM10.3201 3.99986L13.0001 6.67986L15.0001 4.72986L12.2701 1.99986L10.3201 3.99986Z" fill="#2D76FF"/>
</svg>
